<mxfile host="app.diagrams.net" modified="2024-06-11T08:37:31.367Z" agent="Mozilla/5.0 (Windows NT 10.0; Win64; x64) AppleWebKit/537.36 (KHTML, like Gecko) Chrome/125.0.0.0 Safari/537.36" etag="5ScJri2CEl0u01Yp1SVk" version="24.5.2" type="device">
  <diagram name="‫עמוד-1‬" id="CQrPFYXkgpnJv0QL5zif">
    <mxGraphModel dx="794" dy="447" grid="1" gridSize="10" guides="1" tooltips="1" connect="1" arrows="1" fold="1" page="1" pageScale="1" pageWidth="827" pageHeight="1169" math="0" shadow="0">
      <root>
        <mxCell id="0" />
        <mxCell id="1" parent="0" />
        <mxCell id="LWafYORUtE3vk9QtDNV3-1" value="&lt;font face=&quot;Georgia&quot; style=&quot;font-size: 16px;&quot;&gt;microservice folder&lt;/font&gt;" style="image;aspect=fixed;html=1;points=[];align=center;fontSize=12;image=img/lib/azure2/general/Folder_Blank.svg;labelPosition=center;verticalLabelPosition=middle;verticalAlign=middle;labelBackgroundColor=none;" parent="1" vertex="1">
          <mxGeometry x="520" y="150" width="123.21" height="100" as="geometry" />
        </mxCell>
        <mxCell id="LWafYORUtE3vk9QtDNV3-3" value="" style="rounded=0;whiteSpace=wrap;html=1;" parent="1" vertex="1">
          <mxGeometry x="30" y="40" width="320" height="320" as="geometry" />
        </mxCell>
        <mxCell id="LWafYORUtE3vk9QtDNV3-5" value="&lt;font style=&quot;font-size: 18px;&quot;&gt;contains&lt;/font&gt;" style="endArrow=classic;html=1;rounded=0;entryX=1;entryY=0.5;entryDx=0;entryDy=0;" parent="1" source="LWafYORUtE3vk9QtDNV3-1" target="LWafYORUtE3vk9QtDNV3-3" edge="1">
          <mxGeometry width="50" height="50" relative="1" as="geometry">
            <mxPoint x="380" y="270" as="sourcePoint" />
            <mxPoint x="430" y="220" as="targetPoint" />
          </mxGeometry>
        </mxCell>
        <mxCell id="LWafYORUtE3vk9QtDNV3-6" value="&lt;font style=&quot;font-size: 15px;&quot;&gt;src&lt;/font&gt;" style="image;aspect=fixed;html=1;points=[];align=center;fontSize=12;image=img/lib/azure2/general/Folder_Blank.svg;labelPosition=center;verticalLabelPosition=middle;verticalAlign=middle;labelBackgroundColor=none;" parent="1" vertex="1">
          <mxGeometry x="60" y="80" width="98.57" height="80" as="geometry" />
        </mxCell>
        <mxCell id="LWafYORUtE3vk9QtDNV3-8" value="" style="image;aspect=fixed;html=1;points=[];align=center;fontSize=12;image=img/lib/azure2/general/Folder_Blank.svg;" parent="1" vertex="1">
          <mxGeometry x="200" y="80" width="98.57" height="80" as="geometry" />
        </mxCell>
        <mxCell id="LWafYORUtE3vk9QtDNV3-7" value="&lt;span style=&quot;font-size: 15px;&quot;&gt;other folders&lt;/span&gt;" style="image;aspect=fixed;html=1;points=[];align=center;fontSize=12;image=img/lib/azure2/general/Folder_Blank.svg;labelPosition=center;verticalLabelPosition=middle;verticalAlign=middle;labelBackgroundColor=none;" parent="1" vertex="1">
          <mxGeometry x="210" y="90" width="98.57" height="80" as="geometry" />
        </mxCell>
        <mxCell id="LWafYORUtE3vk9QtDNV3-9" value="&lt;font style=&quot;font-size: 14px;&quot;&gt;package.json&lt;/font&gt;" style="dashed=0;outlineConnect=0;html=1;align=center;labelPosition=center;verticalLabelPosition=bottom;verticalAlign=top;shape=mxgraph.weblogos.json" parent="1" vertex="1">
          <mxGeometry x="60" y="230" width="70" height="75.8" as="geometry" />
        </mxCell>
        <mxCell id="LWafYORUtE3vk9QtDNV3-10" value="&lt;font style=&quot;font-size: 14px;&quot;&gt;pom.xml&lt;/font&gt;" style="shape=image;html=1;verticalAlign=top;verticalLabelPosition=bottom;labelBackgroundColor=#ffffff;imageAspect=0;aspect=fixed;image=https://cdn1.iconfinder.com/data/icons/bootstrap-vol-3/16/filetype-xml-128.png" parent="1" vertex="1">
          <mxGeometry x="158.57" y="225.8" width="80" height="80" as="geometry" />
        </mxCell>
        <mxCell id="LWafYORUtE3vk9QtDNV3-11" value="&lt;font style=&quot;font-size: 14px;&quot;&gt;.gemspec&lt;/font&gt;" style="shape=image;html=1;verticalAlign=top;verticalLabelPosition=bottom;labelBackgroundColor=#ffffff;imageAspect=0;aspect=fixed;image=https://cdn0.iconfinder.com/data/icons/octicons/1024/ruby-128.png" parent="1" vertex="1">
          <mxGeometry x="250" y="225.8" width="80" height="80" as="geometry" />
        </mxCell>
        <mxCell id="LWafYORUtE3vk9QtDNV3-29" value="" style="edgeStyle=orthogonalEdgeStyle;rounded=0;orthogonalLoop=1;jettySize=auto;html=1;" parent="1" source="LWafYORUtE3vk9QtDNV3-12" target="LWafYORUtE3vk9QtDNV3-20" edge="1">
          <mxGeometry relative="1" as="geometry" />
        </mxCell>
        <mxCell id="LWafYORUtE3vk9QtDNV3-30" value="" style="edgeStyle=orthogonalEdgeStyle;rounded=0;orthogonalLoop=1;jettySize=auto;html=1;" parent="1" source="LWafYORUtE3vk9QtDNV3-12" target="LWafYORUtE3vk9QtDNV3-20" edge="1">
          <mxGeometry relative="1" as="geometry" />
        </mxCell>
        <mxCell id="LWafYORUtE3vk9QtDNV3-12" value="&lt;font style=&quot;font-size: 14px;&quot;&gt;trackstack cli&lt;/font&gt;&lt;div&gt;&lt;font style=&quot;font-size: 14px;&quot;&gt;&lt;br&gt;&lt;/font&gt;&lt;/div&gt;" style="shape=image;html=1;verticalAlign=top;verticalLabelPosition=bottom;labelBackgroundColor=#ffffff;imageAspect=0;aspect=fixed;image=https://cdn2.iconfinder.com/data/icons/analytic-investment-and-balanced-scorecard/512/526_game_gamepad_joystick_play_playstation_game_design_development-128.png" parent="1" vertex="1">
          <mxGeometry x="370" y="470" width="128" height="128" as="geometry" />
        </mxCell>
        <mxCell id="LWafYORUtE3vk9QtDNV3-13" value="&lt;font style=&quot;font-size: 14px;&quot;&gt;get version&lt;/font&gt;" style="endArrow=classic;html=1;rounded=0;exitX=0.5;exitY=1;exitDx=0;exitDy=0;entryX=0;entryY=0;entryDx=0;entryDy=0;" parent="1" source="LWafYORUtE3vk9QtDNV3-3" target="LWafYORUtE3vk9QtDNV3-12" edge="1">
          <mxGeometry width="50" height="50" relative="1" as="geometry">
            <mxPoint x="260" y="500" as="sourcePoint" />
            <mxPoint x="310" y="450" as="targetPoint" />
          </mxGeometry>
        </mxCell>
        <mxCell id="LWafYORUtE3vk9QtDNV3-16" value="write version" style="endArrow=classic;html=1;rounded=0;exitX=1;exitY=0;exitDx=0;exitDy=0;" parent="1" source="LWafYORUtE3vk9QtDNV3-12" target="LWafYORUtE3vk9QtDNV3-15" edge="1">
          <mxGeometry width="50" height="50" relative="1" as="geometry">
            <mxPoint x="440" y="350" as="sourcePoint" />
            <mxPoint x="490" y="300" as="targetPoint" />
          </mxGeometry>
        </mxCell>
        <mxCell id="LWafYORUtE3vk9QtDNV3-17" value="&lt;font style=&quot;font-size: 14px;&quot;&gt;write file into project folder&lt;/font&gt;" style="endArrow=classic;html=1;rounded=0;entryX=0.984;entryY=0.926;entryDx=0;entryDy=0;entryPerimeter=0;" parent="1" source="LWafYORUtE3vk9QtDNV3-15" target="LWafYORUtE3vk9QtDNV3-1" edge="1">
          <mxGeometry width="50" height="50" relative="1" as="geometry">
            <mxPoint x="630" y="320" as="sourcePoint" />
            <mxPoint x="680" y="270" as="targetPoint" />
          </mxGeometry>
        </mxCell>
        <mxCell id="LWafYORUtE3vk9QtDNV3-18" value="&lt;div style=&quot;&quot;&gt;&lt;span style=&quot;font-family: Georgia; background-color: initial;&quot;&gt;&lt;font style=&quot;font-size: 14px;&quot;&gt;project&lt;/font&gt;&lt;/span&gt;&lt;/div&gt;&lt;div style=&quot;&quot;&gt;&lt;span style=&quot;font-family: Georgia; background-color: initial;&quot;&gt;&lt;font style=&quot;font-size: 14px;&quot;&gt;folder&lt;/font&gt;&lt;/span&gt;&lt;/div&gt;" style="image;aspect=fixed;html=1;points=[];align=center;fontSize=12;image=img/lib/azure2/general/Folder_Blank.svg;labelPosition=center;verticalLabelPosition=middle;verticalAlign=middle;labelBackgroundColor=none;" parent="1" vertex="1">
          <mxGeometry x="643.21" y="730" width="123.21" height="100" as="geometry" />
        </mxCell>
        <mxCell id="LWafYORUtE3vk9QtDNV3-19" value="write into folder" style="endArrow=classic;html=1;rounded=0;entryX=0.461;entryY=0.014;entryDx=0;entryDy=0;entryPerimeter=0;" parent="1" target="LWafYORUtE3vk9QtDNV3-18" edge="1">
          <mxGeometry width="50" height="50" relative="1" as="geometry">
            <mxPoint x="740" y="420" as="sourcePoint" />
            <mxPoint x="490" y="490" as="targetPoint" />
          </mxGeometry>
        </mxCell>
        <mxCell id="LWafYORUtE3vk9QtDNV3-15" value="&lt;font style=&quot;font-size: 14px;&quot;&gt;trackstack.json&lt;/font&gt;" style="dashed=0;outlineConnect=0;html=1;align=center;labelPosition=center;verticalLabelPosition=bottom;verticalAlign=top;shape=mxgraph.weblogos.json" parent="1" vertex="1">
          <mxGeometry x="710" y="340" width="70" height="75.8" as="geometry" />
        </mxCell>
        <mxCell id="LWafYORUtE3vk9QtDNV3-20" value="" style="rounded=0;whiteSpace=wrap;html=1;" parent="1" vertex="1">
          <mxGeometry x="120" y="670" width="390" height="240" as="geometry" />
        </mxCell>
        <mxCell id="en9-EnoqY9Ez1FSCvXuB-1" value="" style="edgeStyle=orthogonalEdgeStyle;rounded=0;orthogonalLoop=1;jettySize=auto;html=1;" edge="1" parent="1" source="LWafYORUtE3vk9QtDNV3-21" target="LWafYORUtE3vk9QtDNV3-23">
          <mxGeometry relative="1" as="geometry" />
        </mxCell>
        <mxCell id="LWafYORUtE3vk9QtDNV3-21" value="&lt;font style=&quot;font-size: 14px;&quot;&gt;nextVersion.json&lt;/font&gt;" style="dashed=0;outlineConnect=0;html=1;align=center;labelPosition=center;verticalLabelPosition=bottom;verticalAlign=top;shape=mxgraph.weblogos.json" parent="1" vertex="1">
          <mxGeometry x="280" y="680" width="70" height="75.8" as="geometry" />
        </mxCell>
        <mxCell id="LWafYORUtE3vk9QtDNV3-22" value="&lt;font style=&quot;font-size: 14px;&quot;&gt;1.0.0.json&lt;/font&gt;" style="dashed=0;outlineConnect=0;html=1;align=center;labelPosition=center;verticalLabelPosition=bottom;verticalAlign=top;shape=mxgraph.weblogos.json" parent="1" vertex="1">
          <mxGeometry x="150" y="790" width="70" height="75.8" as="geometry" />
        </mxCell>
        <mxCell id="LWafYORUtE3vk9QtDNV3-23" value="&lt;font style=&quot;font-size: 14px;&quot;&gt;1.1.0.json&lt;/font&gt;" style="dashed=0;outlineConnect=0;html=1;align=center;labelPosition=center;verticalLabelPosition=bottom;verticalAlign=top;shape=mxgraph.weblogos.json" parent="1" vertex="1">
          <mxGeometry x="280" y="790" width="70" height="75.8" as="geometry" />
        </mxCell>
        <mxCell id="LWafYORUtE3vk9QtDNV3-24" value="&lt;font style=&quot;font-size: 14px;&quot;&gt;1.1.1.json&lt;/font&gt;" style="dashed=0;outlineConnect=0;html=1;align=center;labelPosition=center;verticalLabelPosition=bottom;verticalAlign=top;shape=mxgraph.weblogos.json" parent="1" vertex="1">
          <mxGeometry x="414" y="790" width="70" height="75.8" as="geometry" />
        </mxCell>
        <mxCell id="LWafYORUtE3vk9QtDNV3-27" value="&lt;font style=&quot;font-size: 14px;&quot;&gt;contains&lt;/font&gt;" style="endArrow=classic;html=1;rounded=0;exitX=-0.013;exitY=0.614;exitDx=0;exitDy=0;exitPerimeter=0;entryX=1;entryY=0.5;entryDx=0;entryDy=0;" parent="1" source="LWafYORUtE3vk9QtDNV3-18" target="LWafYORUtE3vk9QtDNV3-20" edge="1">
          <mxGeometry width="50" height="50" relative="1" as="geometry">
            <mxPoint x="380" y="880" as="sourcePoint" />
            <mxPoint x="430" y="830" as="targetPoint" />
          </mxGeometry>
        </mxCell>
        <mxCell id="LWafYORUtE3vk9QtDNV3-28" value="&lt;font style=&quot;font-size: 16px;&quot;&gt;init&lt;/font&gt;" style="endArrow=classic;html=1;rounded=0;exitX=1;exitY=1;exitDx=0;exitDy=0;entryX=0.029;entryY=0.014;entryDx=0;entryDy=0;entryPerimeter=0;" parent="1" source="LWafYORUtE3vk9QtDNV3-12" target="LWafYORUtE3vk9QtDNV3-18" edge="1">
          <mxGeometry width="50" height="50" relative="1" as="geometry">
            <mxPoint x="520" y="610" as="sourcePoint" />
            <mxPoint x="570" y="560" as="targetPoint" />
          </mxGeometry>
        </mxCell>
      </root>
    </mxGraphModel>
  </diagram>
</mxfile>
